<svg width="30" height="28" viewBox="0 0 30 28" fill="none" xmlns="http://www.w3.org/2000/svg">
<path d="M1.66675 14.0007L14.5231 20.4289C14.698 20.5163 14.7854 20.5601 14.8771 20.5773C14.9584 20.5925 15.0418 20.5925 15.123 20.5773C15.2147 20.5601 15.3022 20.5163 15.4771 20.4289L28.3334 14.0007M1.66675 20.6674L14.5231 27.0956C14.698 27.183 14.7854 27.2267 14.8771 27.2439C14.9584 27.2592 15.0418 27.2592 15.123 27.2439C15.2147 27.2267 15.3022 27.183 15.4771 27.0956L28.3334 20.6674M1.66675 7.33407L14.5231 0.905918C14.698 0.818464 14.7854 0.774736 14.8771 0.757526C14.9584 0.742283 15.0418 0.742283 15.123 0.757526C15.2147 0.774736 15.3022 0.818464 15.4771 0.905918L28.3334 7.33407L15.4771 13.7622C15.3022 13.8497 15.2147 13.8934 15.123 13.9106C15.0418 13.9259 14.9584 13.9259 14.8771 13.9106C14.7854 13.8934 14.698 13.8497 14.5231 13.7622L1.66675 7.33407Z" stroke="#C0CBE1" stroke-width="1.5" stroke-linecap="round" stroke-linejoin="round"/>
</svg>
