<svg width="24" height="24" viewBox="0 0 24 24" fill="none" xmlns="http://www.w3.org/2000/svg">
<path d="M22.5 8.5L22.5 1.5M22.5 1.5H15.5M22.5 1.5L13.1667 10.8333M9.66667 3.83333H7.1C5.13982 3.83333 4.15972 3.83333 3.41103 4.21481C2.75247 4.55037 2.21703 5.0858 1.88148 5.74437C1.5 6.49306 1.5 7.47315 1.5 9.43333V16.9C1.5 18.8602 1.5 19.8403 1.88148 20.589C2.21703 21.2475 2.75247 21.783 3.41103 22.1185C4.15972 22.5 5.13982 22.5 7.1 22.5H14.5667C16.5268 22.5 17.5069 22.5 18.2556 22.1185C18.9142 21.783 19.4496 21.2475 19.7852 20.589C20.1667 19.8403 20.1667 18.8602 20.1667 16.9V14.3333" stroke="#C7D7FE" stroke-width="1.5" stroke-linecap="round" stroke-linejoin="round"/>
</svg>
