<svg width="33" height="32" viewBox="0 0 33 32" fill="none" xmlns="http://www.w3.org/2000/svg">
<path d="M7.92857 4C6.0375 4 4.5 5.5375 4.5 7.42857V24.5714C4.5 26.4625 6.0375 28 7.92857 28H25.0714C26.9625 28 28.5 26.4625 28.5 24.5714V7.42857C28.5 5.5375 26.9625 4 25.0714 4H7.92857ZM23.8446 8.5L18.2839 14.8536L24.825 23.5H19.7036L15.6964 18.2554L11.1054 23.5H8.56071L14.5071 16.7018L8.23393 8.5H13.4839L17.1107 13.2946L21.3 8.5H23.8446ZM21.8196 21.9786L12.7179 9.94107H11.2018L20.4054 21.9786H21.8143H21.8196Z" fill="#636E85"/>
</svg>
