<svg width="20" height="16" viewBox="0 0 20 16" fill="none" xmlns="http://www.w3.org/2000/svg">
<path d="M2.08317 8.00065H4.90148C5.47248 8.00065 5.99448 8.32326 6.24984 8.83398C6.5052 9.34471 7.02719 9.66732 7.5982 9.66732H12.4015C12.9725 9.66732 13.4945 9.34471 13.7498 8.83398C14.0052 8.32326 14.5272 8.00065 15.0982 8.00065H17.9165M7.47197 1.33398H12.5277C13.4251 1.33398 13.8738 1.33398 14.2699 1.47062C14.6202 1.59145 14.9393 1.78865 15.204 2.04794C15.5034 2.34115 15.7041 2.74248 16.1054 3.54513L17.9109 7.15607C18.0684 7.47106 18.1471 7.62855 18.2027 7.79361C18.252 7.94019 18.2876 8.09104 18.309 8.2442C18.3332 8.41667 18.3332 8.59276 18.3332 8.94492V10.6673C18.3332 12.0674 18.3332 12.7675 18.0607 13.3023C17.821 13.7727 17.4386 14.1552 16.9681 14.3948C16.4334 14.6673 15.7333 14.6673 14.3332 14.6673H5.6665C4.26637 14.6673 3.56631 14.6673 3.03153 14.3948C2.56112 14.1552 2.17867 13.7727 1.93899 13.3023C1.6665 12.7675 1.6665 12.0674 1.6665 10.6673V8.94492C1.6665 8.59276 1.6665 8.41667 1.69065 8.2442C1.71209 8.09104 1.7477 7.94019 1.79702 7.79361C1.85255 7.62855 1.9313 7.47105 2.0888 7.15607L3.89426 3.54513C4.29559 2.74248 4.49626 2.34115 4.79562 2.04794C5.06036 1.78865 5.37943 1.59145 5.72974 1.47062C6.12588 1.33398 6.57458 1.33398 7.47197 1.33398Z" stroke="#636E85" stroke-width="1.5" stroke-linecap="round" stroke-linejoin="round"/>
</svg>
