<svg width="30" height="30" viewBox="0 0 30 30" fill="none" xmlns="http://www.w3.org/2000/svg">
<path d="M21.9334 17.6675C22.3027 17.6675 22.4874 17.6675 22.6371 17.7496C22.7606 17.8172 22.8755 17.9442 22.9305 18.0738C22.9971 18.231 22.9803 18.3981 22.9468 18.7325C22.7729 20.4659 22.1763 22.1361 21.2024 23.5936C20.0304 25.3478 18.3645 26.7149 16.4154 27.5223C14.4663 28.3296 12.3216 28.5408 10.2525 28.1293C8.18332 27.7177 6.28271 26.7018 4.79095 25.21C3.29919 23.7183 2.28329 21.8176 1.87171 19.7485C1.46013 17.6794 1.67137 15.5347 2.4787 13.5856C3.28604 11.6365 4.65321 9.9706 6.40734 8.79854C7.86483 7.82467 9.53509 7.22808 11.2685 7.05416C11.6028 7.02062 11.77 7.00384 11.9271 7.0705C12.0567 7.12549 12.1838 7.24041 12.2514 7.36388C12.3334 7.51355 12.3334 7.69822 12.3334 8.06755L12.3334 16.6009C12.3334 16.9742 12.3334 17.1609 12.4061 17.3035C12.47 17.429 12.572 17.531 12.6974 17.5949C12.84 17.6675 13.0267 17.6675 13.4001 17.6675H21.9334Z" stroke="#C0CBE1" stroke-width="1.5" stroke-linecap="round" stroke-linejoin="round"/>
<path d="M17.6668 2.73421C17.6668 2.36487 17.6668 2.1802 17.7488 2.03053C17.8164 1.90706 17.9434 1.79214 18.073 1.73716C18.2301 1.6705 18.3973 1.68727 18.7317 1.7208C21.1695 1.96534 23.4614 3.04395 25.2092 4.79174C26.957 6.53953 28.0356 8.83141 28.2802 11.2693C28.3137 11.6036 28.3305 11.7708 28.2638 11.9279C28.2088 12.0575 28.0939 12.1846 27.9704 12.2522C27.8208 12.3342 27.6361 12.3342 27.2668 12.3342L18.7334 12.3342C18.3601 12.3342 18.1734 12.3342 18.0308 12.2615C17.9053 12.1976 17.8033 12.0956 17.7394 11.9702C17.6668 11.8276 17.6668 11.6409 17.6668 11.2675V2.73421Z" stroke="#C0CBE1" stroke-width="1.5" stroke-linecap="round" stroke-linejoin="round"/>
</svg>
