<svg width="28" height="25" viewBox="0 0 28 25" fill="none" xmlns="http://www.w3.org/2000/svg">
<path d="M24.6666 23.6667V14.3333M13.9999 23.6667L13.9999 10.3333M3.33325 23.6667L3.33325 18.3333M15.8755 3.70334L22.7667 6.28756M12.3983 4.20123L4.93356 9.79977M26.0808 5.58579C26.8618 6.36683 26.8618 7.63316 26.0808 8.41421C25.2997 9.19526 24.0334 9.19526 23.2524 8.41421C22.4713 7.63316 22.4713 6.36683 23.2524 5.58579C24.0334 4.80474 25.2997 4.80474 26.0808 5.58579ZM4.74747 9.58579C5.52851 10.3668 5.52851 11.6332 4.74747 12.4142C3.96642 13.1953 2.70009 13.1953 1.91904 12.4142C1.13799 11.6332 1.13799 10.3668 1.91904 9.58579C2.70009 8.80474 3.96642 8.80474 4.74747 9.58579ZM15.4141 1.58579C16.1952 2.36683 16.1952 3.63316 15.4141 4.41421C14.6331 5.19526 13.3668 5.19526 12.5857 4.41421C11.8047 3.63316 11.8047 2.36683 12.5857 1.58579C13.3668 0.804738 14.6331 0.804738 15.4141 1.58579Z" stroke="#C0CBE1" stroke-width="1.5" stroke-linecap="round" stroke-linejoin="round"/>
</svg>
