<svg width="33" height="32" viewBox="0 0 33 32" fill="none" xmlns="http://www.w3.org/2000/svg">
<path d="M16.5001 16L3.60912 12.594C2.77974 15.7331 3.12426 19.0669 4.57804 21.9701C6.03182 24.8732 8.49496 27.1461 11.5053 28.3624L16.5001 16ZM16.5001 16L16.6397 2.66736C13.6808 2.63637 10.7957 3.59053 8.43878 5.37956C6.08182 7.16859 4.38694 9.69083 3.62109 12.549L16.5001 16ZM29.8334 16C29.8334 23.3638 23.8639 29.3333 16.5001 29.3333C9.1363 29.3333 3.16676 23.3638 3.16676 16C3.16676 8.63616 9.1363 2.66663 16.5001 2.66663C23.8639 2.66663 29.8334 8.63616 29.8334 16Z" stroke="#636E85" stroke-width="2" stroke-linecap="round" stroke-linejoin="round"/>
</svg>
